<svg width="33" height="30" viewBox="0 0 33 30" fill="none" xmlns="http://www.w3.org/2000/svg">
<path d="M0.279662 9.375L0.279663 20.625C0.279663 25.8019 4.82982 30 10.4408 30L22.6342 30C28.2451 30 32.7953 25.8019 32.7953 20.625L32.7953 9.375C32.7953 4.19813 28.2451 7.79513e-07 22.6342 1.0058e-06L10.4408 1.49755e-06C4.82982 1.72384e-06 0.279662 4.19813 0.279662 9.375ZM22.6342 2.8125C26.5563 2.8125 29.7469 5.75625 29.7469 9.375L29.7469 20.625C29.7469 24.2437 26.5563 27.1875 22.6342 27.1875L10.4408 27.1875C6.5186 27.1875 3.328 24.2438 3.328 20.625L3.328 9.375C3.328 5.75625 6.5186 2.8125 10.4408 2.8125L22.6342 2.8125Z" fill="black"/>
<path d="M8.40863 15C8.40863 19.1419 12.0483 22.5 16.5375 22.5C21.0267 22.5 24.6664 19.1419 24.6664 15C24.6664 10.8581 21.0267 7.5 16.5375 7.5C12.0483 7.5 8.40863 10.8581 8.40863 15ZM21.6181 15C21.6181 17.5837 19.3379 19.6875 16.5375 19.6875C13.7351 19.6875 11.457 17.5838 11.457 15C11.457 12.4163 13.7351 10.3125 16.5375 10.3125C19.3379 10.3125 21.6181 12.4163 21.6181 15Z" fill="black"/>
<path d="M8.8821 6.93715C8.8821 6.38521 8.39715 5.93777 7.79893 5.93777C7.20071 5.93777 6.71576 6.38521 6.71576 6.93715C6.71576 7.48909 7.20071 7.93652 7.79893 7.93652C8.39715 7.93652 8.8821 7.48909 8.8821 6.93715Z" fill="black"/>
</svg>
