<svg width="33" height="30" viewBox="0 0 33 30" fill="none" xmlns="http://www.w3.org/2000/svg">
<path d="M28.2276 0L5.23801 0C2.61189 0 0.474976 1.97159 0.474976 4.39453L0.474976 25.6055C0.474976 28.0284 2.61189 30 5.23801 30L14.8276 30L14.8276 19.3945L11.0172 19.3945L11.0172 14.1211H14.8276V10.5469C14.8276 7.63893 17.3914 5.27344 20.5432 5.27344L26.3224 5.27344L26.3224 10.5469H20.5432V14.1211H26.3224L25.3698 19.3945H20.5432V30H28.2276C30.8537 30 32.9906 28.0284 32.9906 25.6055L32.9906 4.39453C32.9906 1.97159 30.8537 0 28.2276 0Z" fill="black"/>
</svg>
